<?xml version="1.0" standalone="no"?><!DOCTYPE svg PUBLIC "-//W3C//DTD SVG 1.1//EN" "http://www.w3.org/Graphics/SVG/1.1/DTD/svg11.dtd"><svg t="1534639532505" class="icon" style="" viewBox="0 0 1024 1024" version="1.1" xmlns="http://www.w3.org/2000/svg" p-id="3776" xmlns:xlink="http://www.w3.org/1999/xlink" width="64" height="64"><defs><style type="text/css"></style></defs><path d="M274.905166 530.777256 475.059458 425.993005c0.716299-11.870091 7.469971-24.251824 20.056361-32.335765 18.726092-12.074748 41.749975-9.618867 51.368842 5.321075 9.618867 14.939942 2.251224 36.940542-16.474868 48.912961-12.279404 7.879285-26.093734 9.004897-37.04287 5.01409L307.95723 549.810333l203.019486 99.667833 444.412112-230.852803L516.707105 199.335665 66.666933 431.31408l206.191666 101.202758C273.574898 532.005196 274.086539 531.288898 274.905166 530.777256zM287.082242 572.527231l0 51.778155c1.944239-0.716299 3.888478-1.22794 6.037374-1.22794 9.925852 0 18.112122 8.18627 18.112122 18.112122l0 86.365144c41.852303 56.280604 115.52873 93.732787 199.847307 93.732787 128.115119 0 232.183072-86.365144 236.173878-194.01459l0.409313 0 0-70.504247-242.31358 124.840612L287.082242 572.527231zM279.305286 640.268612c-2.148896 0-4.093135 0.511642-6.037374 1.22794l0-77.87189c0-9.925852-8.18627-18.112122-18.112122-18.112122s-18.112122 8.18627-18.112122 18.112122l0 80.430099c0 9.925852 8.18627 18.112122 18.112122 18.112122 2.148896 0 4.093135-0.511642 6.037374-1.22794l0 145.613271c0 9.925852 8.18627 18.112122 18.112122 18.112122 9.925852 0 18.112122-8.18627 18.112122-18.112122L297.417408 658.380733C297.417408 648.454882 289.333467 640.268612 279.305286 640.268612z" p-id="3777" fill="#1296db"></path></svg>